<svg xmlns="http://www.w3.org/2000/svg" xmlns:xlink="http://www.w3.org/1999/xlink" viewBox="0,0,256,256" width="30px" height="30px" fill-rule="nonzero"><g fill="#ffffff" fill-rule="nonzero" stroke="none" stroke-width="1" stroke-linecap="butt" stroke-linejoin="miter" stroke-miterlimit="10" stroke-dasharray="" stroke-dashoffset="0" font-family="none" font-weight="none" font-size="none" text-anchor="none" style="mix-blend-mode: normal"><g transform="scale(8.53333,8.53333)"><path d="M15,3c-6.627,0 -12,5.373 -12,12c0,0.285 0.02297,0.56375 0.04297,0.84375l4.49219,1.17383c0.595,-1.029 1.63242,-1.77003 2.85742,-1.95703l0.67383,-1.20899c-0.039,-0.279 -0.06641,-0.56156 -0.06641,-0.85156c0,-3.314 2.686,-6 6,-6c3.314,0 6,2.686 6,6c0,3.314 -2.686,6 -6,6c-0.29,0 -0.57256,-0.02741 -0.85156,-0.06641l-1.20898,0.67383c-0.294,1.919 -1.93845,3.39258 -3.93945,3.39258c-2.209,0 -4,-1.791 -4,-4c0,-0.018 0.00586,-0.03473 0.00586,-0.05273l-3.61133,-0.94141c1.335,5.17 6.01747,8.99414 11.60547,8.99414c6.627,0 12,-5.373 12,-12c0,-6.627 -5.373,-12 -12,-12zM17,9c-2.206,0 -4,1.794 -4,4c0,2.206 1.794,4 4,4c2.206,0 4,-1.794 4,-4c0,-2.206 -1.794,-4 -4,-4zM17,11c1.103,0 2,0.897 2,2c0,1.103 -0.897,2 -2,2c-1.103,0 -2,-0.897 -2,-2c0,-1.103 0.897,-2 2,-2zM11,16.5c-0.785,0 -1.47755,0.36855 -1.93555,0.93555l2.19922,0.59961c0.533,0.146 0.84812,0.69552 0.70313,1.22852c-0.123,0.444 -0.5268,0.73633 -0.9668,0.73633c-0.087,0 -0.17467,-0.01116 -0.26367,-0.03516l-2.20117,-0.59961c0.179,1.206 1.20884,2.13477 2.46484,2.13477c1.381,0 2.5,-1.119 2.5,-2.5c0,-1.381 -1.119,-2.5 -2.5,-2.5z"></path></g></g></svg>